<svg width="19" height="19" viewBox="0 0 19 19" fill="none" xmlns="http://www.w3.org/2000/svg">
<path d="M9.65625 0.248047C7.21387 0.248047 6.90675 0.259297 5.94713 0.302047C4.9875 0.347047 4.33388 0.497797 3.76125 0.720547C3.16061 0.946468 2.61655 1.30085 2.16713 1.75892C1.70934 2.20858 1.355 2.75257 1.12875 3.35305C0.906 3.92455 0.754125 4.5793 0.71025 5.53555C0.6675 6.49742 0.65625 6.80342 0.65625 9.24917C0.65625 11.6927 0.6675 11.9987 0.71025 12.9583C0.75525 13.9168 0.906 14.5704 1.12875 15.143C1.35938 15.7348 1.6665 16.2365 2.16713 16.7372C2.66663 17.2378 3.16838 17.546 3.76013 17.7755C4.33388 17.9983 4.98638 18.1502 5.94488 18.194C6.90563 18.2368 7.21163 18.248 9.65625 18.248C12.1009 18.248 12.4058 18.2368 13.3665 18.194C14.3239 18.149 14.9798 17.9983 15.5524 17.7755C16.1526 17.5495 16.6963 17.1951 17.1454 16.7372C17.646 16.2365 17.9531 15.7348 18.1838 15.143C18.4054 14.5704 18.5573 13.9168 18.6023 12.9583C18.645 11.9987 18.6562 11.6927 18.6562 9.24805C18.6562 6.80342 18.645 6.49742 18.6023 5.53667C18.5573 4.5793 18.4054 3.92455 18.1838 3.35305C17.9575 2.75255 17.6032 2.20856 17.1454 1.75892C16.6961 1.30068 16.152 0.946273 15.5513 0.720547C14.9775 0.497797 14.3228 0.345922 13.3654 0.302047C12.4046 0.259297 12.0998 0.248047 9.654 0.248047H9.65738H9.65625ZM8.84963 1.8703H9.65738C12.0604 1.8703 12.345 1.87817 13.2934 1.92205C14.1709 1.96142 14.6479 2.1088 14.9651 2.23142C15.3848 2.39455 15.6851 2.5903 16.0001 2.9053C16.3151 3.2203 16.5098 3.51955 16.6729 3.9403C16.7966 4.25642 16.9429 4.73342 16.9823 5.61092C17.0261 6.5593 17.0351 6.84392 17.0351 9.2458C17.0351 11.6477 17.0261 11.9334 16.9823 12.8818C16.9429 13.7593 16.7955 14.2352 16.6729 14.5524C16.5286 14.9432 16.2983 15.2965 15.999 15.5863C15.684 15.9013 15.3848 16.0959 14.964 16.259C14.649 16.3828 14.172 16.529 13.2934 16.5695C12.345 16.6123 12.0604 16.6224 9.65738 16.6224C7.25438 16.6224 6.96863 16.6123 6.02025 16.5695C5.14275 16.529 4.66687 16.3828 4.34963 16.259C3.95869 16.115 3.60502 15.8851 3.31463 15.5863C3.01509 15.2961 2.78444 14.9424 2.63963 14.5513C2.517 14.2352 2.36963 13.7582 2.33025 12.8807C2.2875 11.9323 2.2785 11.6477 2.2785 9.24355C2.2785 6.84055 2.2875 6.55705 2.33025 5.60867C2.37075 4.73117 2.517 4.25417 2.64075 3.93692C2.80388 3.5173 2.99962 3.21692 3.31463 2.90192C3.62963 2.58692 3.92887 2.3923 4.34963 2.22917C4.66687 2.10542 5.14275 1.95917 6.02025 1.91867C6.8505 1.88042 7.17225 1.86917 8.84963 1.86805V1.8703ZM14.4611 3.3643C14.3193 3.3643 14.1789 3.39223 14.0478 3.44651C13.9168 3.50078 13.7977 3.58033 13.6975 3.68062C13.5972 3.78091 13.5176 3.89997 13.4633 4.031C13.4091 4.16203 13.3811 4.30247 13.3811 4.4443C13.3811 4.58612 13.4091 4.72656 13.4633 4.85759C13.5176 4.98863 13.5972 5.10769 13.6975 5.20797C13.7977 5.30826 13.9168 5.38781 14.0478 5.44209C14.1789 5.49636 14.3193 5.5243 14.4611 5.5243C14.7476 5.5243 15.0223 5.41051 15.2248 5.20797C15.4273 5.00543 15.5411 4.73073 15.5411 4.4443C15.5411 4.15786 15.4273 3.88316 15.2248 3.68062C15.0223 3.47808 14.7476 3.3643 14.4611 3.3643ZM9.65738 4.62655C9.04433 4.61698 8.43551 4.72947 7.86635 4.95746C7.29719 5.18544 6.77908 5.52438 6.34217 5.95452C5.90526 6.38467 5.55828 6.89743 5.32145 7.46296C5.08461 8.02849 4.96264 8.63549 4.96264 9.24861C4.96264 9.86173 5.08461 10.4687 5.32145 11.0343C5.55828 11.5998 5.90526 12.1125 6.34217 12.5427C6.77908 12.9728 7.29719 13.3118 7.86635 13.5398C8.43551 13.7678 9.04433 13.8802 9.65738 13.8707C10.8707 13.8517 12.028 13.3565 12.8793 12.4917C13.7307 11.627 14.2079 10.4621 14.2079 9.24861C14.2079 8.0351 13.7307 6.87026 12.8793 6.00552C12.028 5.14077 10.8707 4.64548 9.65738 4.62655ZM9.65738 6.24767C10.4531 6.24767 11.2163 6.56378 11.779 7.12646C12.3416 7.68914 12.6578 8.4523 12.6578 9.24805C12.6578 10.0438 12.3416 10.807 11.779 11.3696C11.2163 11.9323 10.4531 12.2484 9.65738 12.2484C8.86163 12.2484 8.09847 11.9323 7.53579 11.3696C6.97311 10.807 6.657 10.0438 6.657 9.24805C6.657 8.4523 6.97311 7.68914 7.53579 7.12646C8.09847 6.56378 8.86163 6.24767 9.65738 6.24767Z" fill="white"/>
</svg>
