<svg width="1024" height="1024" viewBox="0 0 1024 1024" fill="none" xmlns="http://www.w3.org/2000/svg">
<path d="M788 176H811L820 179L824 185L826 193L831 195L843 203L847 211V224L843 240L837 258L827 277L819 289L810 301L800 312L793 320L787 327L779 334L769 342H766L767 338L776 327L783 320L796 303L807 289L816 273L821 263L822 257L809 275L801 286L790 298L781 309L747 343L733 354L717 367L700 380L682 393L666 403L655 410L646 411L648 406L666 388L677 379L686 370L694 363L710 347L718 340L733 324L743 313L752 302L759 294L768 282L779 267L791 248L798 233L791 234L776 240L752 253L736 263L723 272L710 282L698 291L687 300L661 324L631 354L624 362L613 375L604 386L594 399L581 416L568 434L558 449L547 467L535 487L525 505L513 531L506 551L502 566L500 584L506 583L520 576L538 562L551 552L554 550H547L542 551H527V549L547 537L564 524L577 513L594 500L613 487L630 474L646 464L671 449L702 433L721 423L748 411L772 403L791 398H806L814 404L817 408V415L813 425L805 439L783 472L764 500L752 517L739 535L732 546L723 558L722 561L738 544L750 530L761 517L774 500L788 481L796 470L809 452L819 436H821L819 442L812 455L803 469L796 480L772 514L759 532L748 546L738 559L730 569L716 586L707 597L696 609L689 617L727 608L758 601L794 595L822 592L849 590H896L902 592L900 594L889 597L849 604L819 610L780 619L747 628L715 639L693 647L668 657L654 666L649.5 668.5L647 670L639 677L624 693L612 706L601 718L591 728L584 736L548 772L540 779L531 788L523 795L513 804L502 813L489 824L474 836L459 847L447 855L434 864L419 873L397 885L363 903L351 908L341 909L337 907L338 902L348 893L366 881L382 870L398 858L412 848L427 835L437 826L450 814L469 795L476 787L485 776L480 780L467 792L453 802L438 814L424 825L407 839L398 846L379 860L367 869L349 882L339 891L333 896H331L332 890L340 880L352 870L365 860L378 848L389 839L404 825L415 816L425 807L433 800L449 785L457 778L476 759L484 752L491 744L496 739L503 730L492 737L469 749L454 757L431 770L406 785L379 800L366 808L350 817L322 834L308 842L286 853L283 852L313 834L324 827L336 818L350 810L364 801L380 792L409 775L431 763L449 753L472 742L491 732L504 725H508L511 722L500 723L483 729L467 736L447 745L417 760L408 765L388 776L371 786L356 795L334 809L320 817L307 825L296 832L270 848L255 859L233 869L209 878L205 879H196L195 874L202 865L213 856L227 844L245 831L283 803L302 790L316 781L326 775L340 766L368 749L383 741L400 731L434 713L457 701L483 688L519 673L543 664L563 657L584 649L597 635L608 621L621 605L630 594L641 581L680 530L700 504L714 485L723 472L719 473L704 482L681 498L669 507L653 518L640 529L627 539L613 551L600 561L584 574L571 583L552 595L524 611L509 618L494 624L485 626H470L464 622L460 613L458 600V582L463 556L475 520L483 501L495 476L503 460L514 439L526 421L536 405L547 389L555 378L563 368L576 352L585 341L599 326L606 318L619 304L626 296L650 272L660 264L666 258L655 265L637 278L624 289L614 298L608 304H606L604 308L590 322L583 330L575 338L568 346L555 362L545 375L534 391L520 412L510 428L496 454L482 483L475 498L463 529L454 558L449 580L448 586V608L450 617L455 625L465 630L476 631L491 629L509 623L543 607L569 592L580 585L597 573L617 558L628 550L640 539L649 533L650 535L642 541L620 563L609 572L596 582L584 592L565 604L549 614L530 624L513 632L496 638L487 640H470L455 634L449 630L443 623L439 615L437 608V585L441 563L448 538L459 506L471 480L484 454L498 430L508 413L534 374L547 357L559 341L569 330L578 319L594 302L624 272L632 265L642 256L653 247L671 233L684 224L704 211L720 202L745 189L770 180L788 176Z" fill="#F7F8F6"/>
<path d="M568 133H577L584 136L586 140V148L582 159L574 169L562 183L553 192L544 203L535 213L526 224L515 237L505 250L492 266L482 280L471 295L457 314L446 327L435 339L425 356L415 375L403 397L395 412L384 435L373 460L364 481L358 499L351 514L348 523L347 519L357 488L363 470L369 455L374 440L386 412L412 359L424 337L420 341L404 365L392 386L383 403L370 431L364 445L361 450L356 465L348 485L344 493L341 495V487L345 469L351 457V454L342 462L335 470L324 484L323 487L326 515L330 540L333 562L341 596L342 609H344L345 601L354 571L362 550L373 523L386 494L397 471L412 443L421 427L433 406L445 387L459 364L467 353L475 341L487 324L499 310L515 290L520 285L530 276L541 267L549 260L566 249L584 239L593 235H600L601 237L596 245L586 256L577 267L561 288L549 305L533 328L513 358L504 373L491 393L482 408L470 429L457 453L442 482L427 513L414 544L403 571L395 591L385 620L377 645L367 682L366 692L360 691L356 689L359 700V704L357 705H351L345 701L336 691L331 682L323 665L311 636L303 610L291 564L283 520V534L286 563L291 591L303 643L313 671L326 699L325 702L316 689L304 668L296 649L290 634L282 606L272 549L269 523L259 531L246 543L241 548H239L238 551L230 558L221 568L210 582L197 597L188 608L173 624L170 626L168 619L169 610L174 598L184 584L197 566L208 552L217 541L231 526L240 517L247 509L264 492L270 490L269 488L268 438L269 382L271 356L278 290L283 265L287 246L293 225L298 212L303 209L310 193L319 177L326 168L332 166L337 169L339 172L338 187L334 212L328 247L322 296L319 328L318 346V422L319 429L326 417L332 408L346 382L356 365L369 342L383 320L396 300L406 286L415 273L430 253L440 240L448 231L457 220L466 211L473 203L485 190L494 181L502 174L513 164L530 151L540 144L552 138L568 133Z" fill="#F7F8F6"/>
<path d="M840 682H858L861 684L860 688L844 693L814 701L791 708L761 718L729 730L703 742L678 754L659 764L645 771L622 784L604 794L583 808L577 811H570L567 808V802L574 794L595 780L610 771L638 755L671 738L690 729L715 718L749 705L788 693L817 686L840 682Z" fill="#F8F9F7"/>
<path d="M467 169L469 170L443 196L434 207L427 214L418 225L409 235L398 249L388 261L376 279L367 291L358 305L345 322L343 323L344 315L354 292L366 273L377 257L390 241L401 227L412 215L419 207L434 192L445 183L455 176L467 169Z" fill="#F8F9F7"/>
<path d="M204 389L208 390L209 392V400L198 430L189 461L182 493L180 508L178 531H176L172 523L170 516L169 498L172 476L177 452L187 420L195 401L201 392L204 389Z" fill="#F8F9F7"/>
<path d="M271 269L272 272L269 290L267 308L266 330L262 364L261 381L260 420L259 439L258 489L256 488L254 471L252 445V422L253 377L254 353L258 314L263 287L268 272L271 269Z" fill="#F8F9F7"/>
<path d="M674 154H682L686 159L682 164L638 183L618 194L608 200L598 202L594 200L593 195L597 189L619 176L634 168L653 160L668 155L674 154Z" fill="#F8F9F7"/>
<path d="M504 725H506V727H504V729L494 736L467 750L443 763L399 789L379 800L366 808L350 817L322 834L308 842L286 853L283 852L313 834L324 827L336 818L350 810L364 801L380 792L409 775L431 763L449 753L472 742L491 732L504 725Z" fill="#F8F9F7"/>
<path d="M253 665H261L264 670L261 677L251 686L234 698L214 710L209 712L203 711L200 706L201 700L210 692L227 680L246 668L253 665Z" fill="#F8F9F7"/>
<path d="M351 453L353 454L349 464L345 472L342 488V494L345 490L348 483H349L348 492L344 505L342 510L341 515L343 516H340V520L335 522L332 525L330 520L329 514L327 515L326 502L325 500V499H323L322 486L326 480L335 469L347 456L351 453Z" fill="#F7F8F6"/>
<path d="M844 519H852L856 523L854 528L838 536L806 551L803 552H794L791 549L792 542L799 536L815 528L839 520L844 519Z" fill="#F8F9F7"/>
<path d="M716 681H727L728 682V688L720 693L685 710L677 713H669L665 710V704L674 698L697 687L716 681Z" fill="#F8F9F7"/>
<path d="M328 753L330 754L322 762L307 772L286 785L276 792L258 804L244 814L234 823L225 830V827L234 818L241 810L255 797L265 789L279 779L292 771L319 758L328 753Z" fill="#F8F9F7"/>
<path d="M232 633H239L242 638L239 645L231 652L222 658L219 659H212L210 657L211 651L217 643L227 635L232 633Z" fill="#F8F9F7"/>
<path d="M794 625L798 626L768 635L743 642L696 657L681 662L666 666H660L662 664L714 647L735 640L760 633L789 626L794 625Z" fill="#F8F9F7"/>
<path d="M263 701L270 702L271 703V709L264 717L259 721L252 724L248 723L245 720L246 713L255 705L263 701Z" fill="#F8F9F7"/>
<path d="M851 312L854 313L848 323L839 333L833 337L832 335L837 326L851 312Z" fill="#F8F9F7"/>
<path d="M483 256V259L476 270L468 281L457 295L455 296L457 291L468 274L479 261L483 256Z" fill="#F7F8F6"/>
<path d="M807 188H815L820 191L819 193H801L781 196H776L779 194L807 188Z" fill="#F7F8F6"/>
<path d="M269 283H270L271 289L270 296L268 324L266 326V308L269 283Z" fill="#F7F8F6"/>
<path d="M351 453L353 454L349 464H345L340 467L336 471V468L347 456L351 453Z" fill="#F7F8F6"/>
<path d="M479 851L481 852L469 861L460 868L452 874L450 873L456 868L457 867L458 866L473 855L479 851Z" fill="#F7F8F6"/>
<path d="M272 256H274L275 258L274 267L272 270L269 271L270 265L272 256Z" fill="#F7F8F6"/>
<path d="M796 190L800 191L801 193L781 196H776L779 194L796 190Z" fill="#F7F8F6"/>
<path d="M334 748H336L334 754L330 758L325 761L323 760L329 754L331 750L334 748Z" fill="#F7F8F6"/>
<path d="M476 162H478V164L473 168H471L469 172H466L468 170V167L476 162Z" fill="#F7F8F6"/>
<path d="M424 335L425 337L420 346L416 347L418 343L424 335Z" fill="#F7F8F6"/>
<path d="M483 256V259L477 268L475 267L477 263L483 256Z" fill="#F7F8F6"/>
</svg>
