<svg width="12" height="12" viewBox="0 0 12 12" fill="none" xmlns="http://www.w3.org/2000/svg">
<path d="M0.771431 1.6081C0.77161 1.33391 0.885573 1.071 1.08829 0.877116C1.29101 0.683235 1.5659 0.574239 1.85259 0.574068L10.5222 0.574069C10.8089 0.57424 11.0838 0.683236 11.2865 0.877117C11.4892 1.071 11.6032 1.33391 11.6034 1.6081L11.6034 9.89982C11.5933 10.1678 11.4751 10.4215 11.2734 10.6078C11.0718 10.7941 10.8025 10.8984 10.5222 10.8987C10.2419 10.8984 9.97261 10.7941 9.77099 10.6078C9.56937 10.4215 9.45111 10.1678 9.44106 9.89982L9.44106 4.10537L1.85259 11.3631C1.6497 11.5571 1.37454 11.6661 1.08762 11.6661C0.800701 11.6661 0.525533 11.5571 0.322651 11.3631C0.119769 11.169 0.00579191 10.9059 0.00579191 10.6314C0.00579156 10.357 0.119769 10.0939 0.322651 9.89982L7.91113 2.64212L1.85258 2.64212C1.5659 2.64195 1.29101 2.53296 1.08829 2.33907C0.885574 2.14519 0.77161 1.88228 0.771431 1.6081Z" fill="white"/>
</svg>
