<svg width="21" height="16" viewBox="0 0 21 16" fill="none" xmlns="http://www.w3.org/2000/svg">
<path d="M8.65625 11.4623L13.8462 8.24805L8.65625 5.03376V11.4623ZM20.2162 3.07305C20.3462 3.57662 20.4363 4.25162 20.4963 5.10876C20.5662 5.9659 20.5963 6.70519 20.5963 7.34805L20.6562 8.24805C20.6562 10.5945 20.4963 12.3195 20.2162 13.423C19.9662 14.3873 19.3862 15.0088 18.4862 15.2766C18.0163 15.4159 17.1562 15.5123 15.8363 15.5766C14.5363 15.6516 13.3463 15.6838 12.2463 15.6838L10.6562 15.748C6.46625 15.748 3.85625 15.5766 2.82625 15.2766C1.92625 15.0088 1.34625 14.3873 1.09625 13.423C0.96625 12.9195 0.87625 12.2445 0.81625 11.3873C0.74625 10.5302 0.71625 9.7909 0.71625 9.14805L0.65625 8.24805C0.65625 5.90162 0.81625 4.17662 1.09625 3.07305C1.34625 2.10876 1.92625 1.48733 2.82625 1.21948C3.29625 1.08019 4.15625 0.983761 5.47625 0.919475C6.77625 0.844475 7.96625 0.812333 9.06625 0.812333L10.6562 0.748047C14.8463 0.748047 17.4562 0.919475 18.4862 1.21948C19.3862 1.48733 19.9662 2.10876 20.2162 3.07305Z" fill="white"/>
</svg>
